<svg width="16" height="12" viewBox="0 0 16 12" xmlns="http://www.w3.org/2000/svg">
      <path
            d="M12.2815 12H3.71267C0.96419 12 0.0652763 11.1291 0.000606282 8.41371C0.000606282 8.27657 0.0458754 8.13943 0.136413 8.04343C0.226952 7.94743 0.349825 7.88571 0.485632 7.88571C1.46215 7.88571 2.25759 7.03543 2.25759 6C2.25759 4.96457 1.46215 4.11429 0.485632 4.11429C0.356292 4.11429 0.233419 4.05943 0.136413 3.95657C0.0394083 3.85371 -0.00586072 3.72343 0.000606282 3.58629C0.0652763 0.870857 0.96419 0 3.71267 0H12.2815C15.1334 0 16 0.918857 16 3.94286V8.05714C16 11.0811 15.1334 12 12.2815 12ZM0.990058 8.86629C1.1 10.608 1.65616 10.9714 3.71267 10.9714H12.2815C14.5967 10.9714 15.0299 10.5051 15.0299 8.05714V3.94286C15.0299 1.49486 14.5967 1.02857 12.2815 1.02857H3.71267C1.65616 1.02857 1.1 1.39886 0.990058 3.13371C2.26406 3.39429 3.22764 4.58057 3.22764 6C3.22764 7.41943 2.26406 8.60571 0.990058 8.86629Z" />
      <path
            d="M10.4929 7.62078V7.30519C10.4929 7.06558 10.5407 6.84545 10.6362 6.64481C10.7336 6.44221 10.8742 6.28052 11.0579 6.15974C11.2434 6.03701 11.4694 5.97565 11.7358 5.97565C12.0059 5.97565 12.2328 6.03604 12.4165 6.15682C12.6021 6.2776 12.7417 6.43929 12.8354 6.64188C12.9309 6.84253 12.9787 7.06364 12.9787 7.30519V7.62078C12.9787 7.86039 12.9309 8.08149 12.8354 8.28409C12.7399 8.48474 12.5993 8.64545 12.4138 8.76623C12.2282 8.88896 12.0022 8.95033 11.7358 8.95033C11.4657 8.95033 11.2388 8.88896 11.0551 8.76623C10.8714 8.64545 10.7318 8.48474 10.6362 8.28409C10.5407 8.08149 10.4929 7.86039 10.4929 7.62078ZM11.2949 7.30519V7.62078C11.2949 7.75909 11.3261 7.88961 11.3886 8.01234C11.4529 8.13507 11.5686 8.19643 11.7358 8.19643C11.903 8.19643 12.0169 8.13604 12.0775 8.01526C12.14 7.89448 12.1712 7.76299 12.1712 7.62078V7.30519C12.1712 7.16299 12.1418 7.03052 12.0831 6.90779C12.0243 6.78507 11.9085 6.7237 11.7358 6.7237C11.5705 6.7237 11.4556 6.78507 11.3913 6.90779C11.327 7.03052 11.2949 7.16299 11.2949 7.30519ZM7.59657 4.1961V3.88052C7.59657 3.63896 7.64525 3.41786 7.74262 3.21721C7.84 3.01461 7.98054 2.85292 8.16427 2.73214C8.34982 2.61136 8.57397 2.55097 8.83669 2.55097C9.1086 2.55097 9.33641 2.61136 9.52013 2.73214C9.70385 2.85292 9.84348 3.01461 9.93902 3.21721C10.0346 3.41786 10.0823 3.63896 10.0823 3.88052V4.1961C10.0823 4.43766 10.0336 4.65877 9.93626 4.85942C9.84073 5.06006 9.70018 5.22078 9.51462 5.34156C9.3309 5.46039 9.10492 5.51981 8.83669 5.51981C8.56845 5.51981 8.34156 5.45942 8.156 5.33864C7.97228 5.21591 7.83265 5.05519 7.73711 4.85649C7.64341 4.65584 7.59657 4.43571 7.59657 4.1961ZM8.40402 3.88052V4.1961C8.40402 4.33831 8.43526 4.46981 8.49772 4.59058C8.56202 4.71136 8.67501 4.77175 8.83669 4.77175C9.00571 4.77175 9.12054 4.71136 9.18117 4.59058C9.24363 4.46981 9.27486 4.33831 9.27486 4.1961V3.88052C9.27486 3.73831 9.24547 3.60584 9.18668 3.48312C9.12789 3.36039 9.01122 3.29903 8.83669 3.29903C8.67318 3.29903 8.56019 3.36136 8.49772 3.48604C8.43526 3.61071 8.40402 3.74221 8.40402 3.88052ZM7.96033 8.74286L11.8405 2.75844H12.5626L8.68236 8.74286H7.96033Z" />
      <path
            d="M4.61411 3.42857C4.33547 3.42857 4.1044 3.19543 4.1044 2.91429V0.514286C4.1044 0.233143 4.33547 0 4.61411 0C4.89275 0 5.12382 0.233143 5.12382 0.514286V2.91429C5.12382 3.19543 4.89275 3.42857 4.61411 3.42857Z" />
      <path
            d="M4.61411 7.71429C4.33547 7.71429 4.1044 7.48114 4.1044 7.2V4.8C4.1044 4.51886 4.33547 4.28571 4.61411 4.28571C4.89275 4.28571 5.12382 4.51886 5.12382 4.8V7.2C5.12382 7.48114 4.89275 7.71429 4.61411 7.71429Z" />
      <path
            d="M4.61411 12C4.33547 12 4.1044 11.7669 4.1044 11.4857V9.08571C4.1044 8.80457 4.33547 8.57143 4.61411 8.57143C4.89275 8.57143 5.12382 8.80457 5.12382 9.08571V11.4857C5.12382 11.7669 4.89275 12 4.61411 12Z" />
</svg>
