<svg t="1677462022385" class="icon" viewBox="0 0 1025 1024" version="1.1" xmlns="http://www.w3.org/2000/svg" p-id="1510"
     width="200" height="200">
  <path d="M513.097856 3.992203C231.447953 3.992203 3.093957 232.346199 3.093957 513.996101s228.353996 510.003899 510.003899 510.003899 510.003899-228.353996 510.003898-510.003899S794.747758 3.992203 513.097856 3.992203z m0 990.066277C248.015595 994.05848 33.135283 779.178168 33.135283 513.996101S248.015595 34.033528 513.097856 34.033528s480.062378 214.880312 480.062378 479.962573-214.980117 480.062378-480.062378 480.062379z"
        p-id="1511"></path>
  <path d="M513.097856 64.074854C264.583236 64.074854 63.076803 265.481481 63.076803 513.996101s201.506433 450.021053 450.021053 450.021053S963.118908 762.610526 963.118908 513.996101 761.612476 64.074854 513.097856 64.074854z m8.383625 523.776998C502.219103 519.984405 464.093567 478.265887 407.204678 462.396881l-5.688889-57.288109c80.243275 9.581287 120.265107 70.462378 119.965692 182.74308zM218.672904 698.735283c-65.072904-14.272125-73.45653-66.17076-25.051072-155.496297-9.182066 68.466277-1.596881 103.897076 22.655751 106.292398 36.42885 3.493177 170.167641 23.853411 160.286939-82.938012-9.880702-106.791423-52.896686-213.483041-35.031579-236.438206 11.876803-15.270175 20.559844-25.649903 25.949318-31.039377l28.94347 45.012086c-18.962963 21.058869-25.550097 43.51501-19.861209 67.368421 8.583236 35.730214 64.773489 201.306823 19.861209 242.725926s-80.243275 65.871345-177.752827 44.513061z m582.562184-33.833918c-63.276413 28.54425-193.721637 87.030019-202.504484-6.387525-2.395322-86.231579-0.499025-87.329435 7.185965-201.905653-22.356335 207.594542-99.405848 292.728265-230.948928 255.20156 122.860039-14.671345 197.414425-118.568421 223.762963-311.491618 2.994152-23.354386 31.738012-34.033528 32.536453 0 0.499025 22.65575 0.499025 81.241326 0 175.65692 0.099805 48.205848 11.677193 72.45848 34.732163 72.957505 23.054971 0.499025 73.755945-7.385575 152.102924-23.653802-52.597271-32.037427-89.724756-39.522807-111.482261-22.555945-21.757505 16.966862-35.231189 28.145029-40.620663 33.534503 29.242885-65.072904 66.569981-90.423392 111.781677-76.051462 45.211696 14.37193 94.415595 32.336842 147.511891 53.894737l-29.342691 44.51306c-21.058869-14.870955-52.597271-12.675244-94.715009 6.28772z"
        p-id="1512"></path>
</svg>
