<svg width="16" height="12" viewBox="0 0 16 12" xmlns="http://www.w3.org/2000/svg">
      <path
            d="M12.2815 12H3.71267C0.96419 12 0.0652763 11.1291 0.000606282 8.41371C0.000606282 8.27657 0.0458754 8.13943 0.136413 8.04343C0.226952 7.94743 0.349825 7.88571 0.485632 7.88571C1.46215 7.88571 2.25759 7.03543 2.25759 6C2.25759 4.96457 1.46215 4.11429 0.485632 4.11429C0.356292 4.11429 0.233419 4.05943 0.136413 3.95657C0.0394083 3.85371 -0.00586072 3.72343 0.000606282 3.58629C0.0652763 0.870857 0.96419 0 3.71267 0H12.2815C15.1334 0 16 0.918857 16 3.94286V8.05714C16 11.0811 15.1334 12 12.2815 12ZM0.990058 8.86629C1.1 10.608 1.65616 10.9714 3.71267 10.9714H12.2815C14.5967 10.9714 15.0299 10.5051 15.0299 8.05714V3.94286C15.0299 1.49486 14.5967 1.02857 12.2815 1.02857H3.71267C1.65616 1.02857 1.1 1.39886 0.990058 3.13371C2.26406 3.39429 3.22764 4.58057 3.22764 6C3.22764 7.41943 2.26406 8.60571 0.990058 8.86629Z" />
      <path
            d="M5.00609 3.42857C4.74094 3.42857 4.52106 3.19543 4.52106 2.91429V0.514286C4.52106 0.233143 4.74094 0 5.00609 0C5.27124 0 5.49111 0.233143 5.49111 0.514286V2.91429C5.49111 3.19543 5.27124 3.42857 5.00609 3.42857Z" />
      <path
            d="M5.00609 7.71429C4.74094 7.71429 4.52106 7.48114 4.52106 7.2V4.8C4.52106 4.51886 4.74094 4.28571 5.00609 4.28571C5.27124 4.28571 5.49111 4.51886 5.49111 4.8V7.2C5.49111 7.48114 5.27124 7.71429 5.00609 7.71429Z" />
      <path
            d="M5.00609 12C4.74094 12 4.52106 11.7669 4.52106 11.4857V9.08571C4.52106 8.80457 4.74094 8.57143 5.00609 8.57143C5.27124 8.57143 5.49111 8.80457 5.49111 9.08571V11.4857C5.49111 11.7669 5.27124 12 5.00609 12Z" />
      <path
            d="M9.87747 9.49091V2.01039H10.3294V9.49091H9.87747ZM11.2912 4.33052C11.2618 4.0539 11.1406 3.83961 10.9274 3.68766C10.7143 3.53377 10.4461 3.45682 10.1227 3.45682C9.89125 3.45682 9.69099 3.49578 9.52197 3.5737C9.35295 3.64967 9.22159 3.75487 9.12789 3.88929C9.03603 4.02175 8.9901 4.17273 8.9901 4.34221C8.9901 4.48442 9.02133 4.60714 9.08379 4.71039C9.1481 4.81364 9.23169 4.90032 9.33457 4.97045C9.43929 5.03864 9.55136 5.0961 9.67078 5.14286C9.7902 5.18766 9.90503 5.22468 10.0153 5.2539L10.5664 5.40584C10.7465 5.4526 10.9311 5.51591 11.1203 5.59578C11.3096 5.67565 11.485 5.78084 11.6467 5.91136C11.8084 6.04188 11.9388 6.20357 12.038 6.39643C12.1391 6.58929 12.1896 6.82013 12.1896 7.08896C12.1896 7.42792 12.1069 7.7289 11.9416 7.99188C11.7781 8.25487 11.5402 8.46234 11.2278 8.61429C10.9173 8.76623 10.5416 8.84221 10.1007 8.84221C9.67813 8.84221 9.31253 8.7711 9.00387 8.6289C8.69522 8.48669 8.45363 8.28506 8.27909 8.02403C8.10456 7.76104 8.0081 7.44935 7.98973 7.08896H8.84404C8.86057 7.30519 8.92671 7.48539 9.04246 7.62955C9.16004 7.77175 9.30977 7.87792 9.49166 7.94805C9.67538 8.01623 9.87655 8.05033 10.0952 8.05033C10.3359 8.05033 10.5499 8.01039 10.7373 7.93052C10.9265 7.8487 11.0753 7.73571 11.1837 7.59156C11.2921 7.44546 11.3463 7.275 11.3463 7.08019C11.3463 6.90292 11.2986 6.75779 11.203 6.64481C11.1093 6.53182 10.9816 6.43831 10.82 6.36429C10.6601 6.29026 10.4792 6.225 10.2771 6.16851L9.61016 5.97565C9.1582 5.84513 8.79994 5.65325 8.53538 5.4C8.27266 5.14675 8.1413 4.81169 8.1413 4.3948C8.1413 4.05 8.22949 3.74903 8.40586 3.49188C8.58223 3.23474 8.82107 3.03506 9.12238 2.89286C9.42368 2.7487 9.76356 2.67662 10.142 2.67662C10.5242 2.67662 10.8613 2.74773 11.1534 2.88994C11.4474 3.03214 11.6789 3.22792 11.8479 3.47727C12.0169 3.72467 12.1051 4.00909 12.1124 4.33052H11.2912Z" />
</svg>
